<svg id="SvgjsSvg1406" width="1333" height="744" xmlns="http://www.w3.org/2000/svg" version="1.1" xmlns:xlink="http://www.w3.org/1999/xlink" xmlns:svgjs="http://svgjs.com/svgjs"><defs id="SvgjsDefs1407"><marker id="SvgjsMarker1444" markerWidth="14" markerHeight="10" refX="10" refY="5" viewBox="0 0 14 10" orient="auto" markerUnits="userSpaceOnUse" stroke-dasharray="0,0"><path id="SvgjsPath1445" d="M0,0 L14,5 L0,10 L0,0" fill="#00ff00" stroke="#00ff00" stroke-width="1"></path></marker><marker id="SvgjsMarker1461" markerWidth="14" markerHeight="10" refX="10" refY="5" viewBox="0 0 14 10" orient="auto" markerUnits="userSpaceOnUse" stroke-dasharray="0,0"><path id="SvgjsPath1462" d="M0,0 L14,5 L0,10 L0,0" fill="#323232" stroke="#323232" stroke-width="1"></path></marker><marker id="SvgjsMarker1469" markerWidth="14" markerHeight="10" refX="10" refY="5" viewBox="0 0 14 10" orient="auto" markerUnits="userSpaceOnUse" stroke-dasharray="0,0"><path id="SvgjsPath1470" d="M0,0 L14,5 L0,10 L0,0" fill="#f57c00" stroke="#f57c00" stroke-width="1"></path></marker><marker id="SvgjsMarker1477" markerWidth="14" markerHeight="10" refX="10" refY="5" viewBox="0 0 14 10" orient="auto" markerUnits="userSpaceOnUse" stroke-dasharray="0,0"><path id="SvgjsPath1478" d="M0,0 L14,5 L0,10 L0,0" fill="#00ff00" stroke="#00ff00" stroke-width="1"></path></marker><marker id="SvgjsMarker1485" markerWidth="14" markerHeight="10" refX="10" refY="5" viewBox="0 0 14 10" orient="auto" markerUnits="userSpaceOnUse" stroke-dasharray="0,0"><path id="SvgjsPath1486" d="M0,0 L14,5 L0,10 L0,0" fill="#323232" stroke="#323232" stroke-width="1"></path></marker><marker id="SvgjsMarker1493" markerWidth="14" markerHeight="10" refX="10" refY="5" viewBox="0 0 14 10" orient="auto" markerUnits="userSpaceOnUse" stroke-dasharray="0,0"><path id="SvgjsPath1494" d="M0,0 L14,5 L0,10 L0,0" fill="#d32f2f" stroke="#d32f2f" stroke-width="1"></path></marker><marker id="SvgjsMarker1501" markerWidth="14" markerHeight="10" refX="10" refY="5" viewBox="0 0 14 10" orient="auto" markerUnits="userSpaceOnUse" stroke-dasharray="0,0"><path id="SvgjsPath1502" d="M0,0 L14,5 L0,10 L0,0" fill="#323232" stroke="#323232" stroke-width="1"></path></marker><marker id="SvgjsMarker1509" markerWidth="14" markerHeight="10" refX="10" refY="5" viewBox="0 0 14 10" orient="auto" markerUnits="userSpaceOnUse" stroke-dasharray="0,0"><path id="SvgjsPath1510" d="M0,0 L14,5 L0,10 L0,0" fill="#f57c00" stroke="#f57c00" stroke-width="1"></path></marker><marker id="SvgjsMarker1517" markerWidth="14" markerHeight="10" refX="10" refY="5" viewBox="0 0 14 10" orient="auto" markerUnits="userSpaceOnUse" stroke-dasharray="0,0"><path id="SvgjsPath1518" d="M0,0 L14,5 L0,10 L0,0" fill="#323232" stroke="#323232" stroke-width="1"></path></marker><marker id="SvgjsMarker1525" markerWidth="14" markerHeight="10" refX="10" refY="5" viewBox="0 0 14 10" orient="auto" markerUnits="userSpaceOnUse" stroke-dasharray="0,0"><path id="SvgjsPath1526" d="M0,0 L14,5 L0,10 L0,0" fill="#323232" stroke="#323232" stroke-width="1"></path></marker><marker id="SvgjsMarker1533" markerWidth="14" markerHeight="10" refX="10" refY="5" viewBox="0 0 14 10" orient="auto" markerUnits="userSpaceOnUse" stroke-dasharray="0,0"><path id="SvgjsPath1534" d="M0,0 L14,5 L0,10 L0,0" fill="#323232" stroke="#323232" stroke-width="1"></path></marker></defs><g id="SvgjsG1408" transform="translate(25,69)"><path id="SvgjsPath1409" d="M 0 0L 1283 0L 1283 494L 0 494Z" stroke="rgba(50,50,50,1)" stroke-width="2" fill="none"></path><path id="SvgjsPath1410" d="M 0 0L 40 0L 40 494L 0 494Z" stroke="rgba(50,50,50,1)" stroke-width="2" fill-opacity="1" fill="#ffffff"></path><g id="SvgjsG1411"><text id="SvgjsText1412" font-family="微软雅黑" text-anchor="middle" font-size="16px" width="474px" fill="#323232" font-weight="400" align="middle" lineHeight="125%" anchor="middle" family="微软雅黑" size="16px" weight="400" font-style="" opacity="1" y="8" transform="rotate(270)"><tspan id="SvgjsTspan1413" dy="20" x="-247"><tspan id="SvgjsTspan1414" style="text-decoration:;font-weight: bold;">zAuth业务服务与认证服务</tspan></tspan></text></g></g><g id="SvgjsG1415" transform="translate(419.99999999999994,25)"><path id="SvgjsPath1416" d="M 65 30L 65 694" stroke-dasharray="3,4" stroke="rgba(50,50,50,1)" stroke-width="2" fill="none"></path><path id="SvgjsPath1417" d="M 0 0L 130 0L 130 30L 0 30Z" stroke="rgba(50,50,50,1)" stroke-width="2" fill-opacity="1" fill="#00ffff"></path><g id="SvgjsG1418"><text id="SvgjsText1419" font-family="微软雅黑" text-anchor="middle" font-size="13px" width="110px" fill="#323232" font-weight="400" align="middle" lineHeight="125%" anchor="middle" family="微软雅黑" size="13px" weight="400" font-style="" opacity="1" y="5.375" transform="rotate(0)"><tspan id="SvgjsTspan1420" dy="16" x="65"><tspan id="SvgjsTspan1421" style="text-decoration:;">zauth认证服务</tspan></tspan></text></g></g><g id="SvgjsG1422" transform="translate(722.75,25)"><path id="SvgjsPath1423" d="M 68.5 30L 68.5 694" stroke-dasharray="3,4" stroke="rgba(50,50,50,1)" stroke-width="2" fill="none"></path><path id="SvgjsPath1424" d="M 0 0L 137 0L 137 30L 0 30Z" stroke="rgba(50,50,50,1)" stroke-width="2" fill-opacity="1" fill="#00ffff"></path><g id="SvgjsG1425"><text id="SvgjsText1426" font-family="微软雅黑" text-anchor="middle" font-size="13px" width="117px" fill="#323232" font-weight="400" align="middle" lineHeight="125%" anchor="middle" family="微软雅黑" size="13px" weight="400" font-style="" opacity="1" y="5.375" transform="rotate(0)"><tspan id="SvgjsTspan1427" dy="16" x="68.5"><tspan id="SvgjsTspan1428" style="text-decoration:;">业务服务</tspan></tspan></text></g></g><g id="SvgjsG1429" transform="translate(470,86)"><path id="SvgjsPath1430" d="M 0 4Q 0 0 4 0L 26 0Q 30 0 30 4L 30 421Q 30 425 26 425L 4 425Q 0 425 0 421L 0 4Z" stroke="rgba(50,50,50,1)" stroke-width="2" fill-opacity="1" fill="#f57f17"></path></g><g id="SvgjsG1431" transform="translate(780.25,158)"><path id="SvgjsPath1432" d="M 0 4Q 0 0 4 0L 26 0Q 30 0 30 4L 30 349Q 30 353 26 353L 4 353Q 0 353 0 349L 0 4Z" stroke="rgba(50,50,50,1)" stroke-width="2" fill-opacity="1" fill="#f57f17"></path></g><g id="SvgjsG1433" transform="translate(117.25000000000003,25)"><path id="SvgjsPath1434" d="M 65 30L 65 694" stroke-dasharray="3,4" stroke="rgba(50,50,50,1)" stroke-width="2" fill="none"></path><path id="SvgjsPath1435" d="M 0 0L 130 0L 130 30L 0 30Z" stroke="rgba(50,50,50,1)" stroke-width="2" fill-opacity="1" fill="#00ffff"></path><g id="SvgjsG1436"><text id="SvgjsText1437" font-family="微软雅黑" text-anchor="middle" font-size="13px" width="110px" fill="#323232" font-weight="400" align="middle" lineHeight="125%" anchor="middle" family="微软雅黑" size="13px" weight="400" font-style="" opacity="1" y="5.375" transform="rotate(0)"><tspan id="SvgjsTspan1438" dy="16" x="65"><tspan id="SvgjsTspan1439" style="text-decoration:;">数据库</tspan></tspan></text></g></g><g id="SvgjsG1440" transform="translate(167.75,86)"><path id="SvgjsPath1441" d="M 0 4Q 0 0 4 0L 26 0Q 30 0 30 4L 30 421Q 30 425 26 425L 4 425Q 0 425 0 421L 0 4Z" stroke="rgba(50,50,50,1)" stroke-width="2" fill-opacity="1" fill="#f57f17"></path></g><g id="SvgjsG1442"><path id="SvgjsPath1443" d="M809 424L944.5 424L944.5 424L1081 424" stroke="#00ff00" stroke-width="2" fill="none" marker-end="url(#SvgjsMarker1444)"></path><rect id="SvgjsRect1446" width="78" height="16" x="906" y="416" fill="#ffffff"></rect><text id="SvgjsText1447" font-family="微软雅黑" text-anchor="middle" font-size="13px" width="78px" fill="#323232" font-weight="400" align="top" lineHeight="16px" anchor="middle" family="微软雅黑" size="13px" weight="400" font-style="" opacity="1" y="414.375" transform="rotate(0)"><tspan id="SvgjsTspan1448" dy="16" x="945"><tspan id="SvgjsTspan1449" style="text-decoration:;">返回业务数据</tspan></tspan></text></g><g id="SvgjsG1450" transform="translate(1032.5,25)"><path id="SvgjsPath1451" d="M 68.5 30L 68.5 694" stroke-dasharray="3,4" stroke="rgba(50,50,50,1)" stroke-width="2" fill="none"></path><path id="SvgjsPath1452" d="M 0 0L 137 0L 137 30L 0 30Z" stroke="rgba(50,50,50,1)" stroke-width="2" fill-opacity="1" fill="#00ffff"></path><g id="SvgjsG1453"><text id="SvgjsText1454" font-family="微软雅黑" text-anchor="middle" font-size="13px" width="117px" fill="#323232" font-weight="400" align="middle" lineHeight="125%" anchor="middle" family="微软雅黑" size="13px" weight="400" font-style="" opacity="1" y="5.375" transform="rotate(0)"><tspan id="SvgjsTspan1455" dy="16" x="68.5"><tspan id="SvgjsTspan1456" style="text-decoration:;">客户端</tspan></tspan></text></g></g><g id="SvgjsG1457" transform="translate(1088.5,86)"><path id="SvgjsPath1458" d="M 0 4Q 0 0 4 0L 26 0Q 30 0 30 4L 30 421Q 30 425 26 425L 4 425Q 0 425 0 421L 0 4Z" stroke="rgba(50,50,50,1)" stroke-width="2" fill-opacity="1" fill="#f57f17"></path></g><g id="SvgjsG1459"><path id="SvgjsPath1460" d="M1087.5 106.8845208845209L797.75 106.8845208845209L797.75 106.8845208845209L507 106.8845208845209" stroke="#323232" stroke-width="2" fill="none" marker-end="url(#SvgjsMarker1461)"></path><rect id="SvgjsRect1463" width="91" height="16" x="751.7500000000001" y="98.8845208845209" fill="#ffffff"></rect><text id="SvgjsText1464" font-family="微软雅黑" text-anchor="middle" font-size="13px" width="91px" fill="#323232" font-weight="400" align="top" lineHeight="16px" anchor="middle" family="微软雅黑" size="13px" weight="400" font-style="" opacity="1" y="97.2595208845209" transform="rotate(0)"><tspan id="SvgjsTspan1465" dy="16" x="797.2500000000001"><tspan id="SvgjsTspan1466" style="text-decoration:;">用户名密码登录</tspan></tspan></text></g><g id="SvgjsG1467"><path id="SvgjsPath1468" d="M1088 338L949.625 338L949.625 334.5L813.85 334.5" stroke="#f57c00" stroke-width="2" fill="none" marker-end="url(#SvgjsMarker1469)"></path><rect id="SvgjsRect1471" width="132" height="16" x="883.625" y="329.55" fill="#ffffff"></rect><text id="SvgjsText1472" font-family="微软雅黑" text-anchor="middle" font-size="13px" width="132px" fill="#323232" font-weight="400" align="top" lineHeight="16px" anchor="middle" family="微软雅黑" size="13px" weight="400" font-style="" opacity="1" y="327.925" transform="rotate(0)"><tspan id="SvgjsTspan1473" dy="16" x="949.625"><tspan id="SvgjsTspan1474" style="text-decoration:;">请求接口，携带cookie</tspan></tspan></text></g><g id="SvgjsG1475"><path id="SvgjsPath1476" d="M811 300L949.25 300L949.25 300L1084.9 300" stroke="#00ff00" stroke-width="2" fill="none" marker-end="url(#SvgjsMarker1477)"></path><rect id="SvgjsRect1479" width="102" height="16" x="896.95" y="292" fill="#ffffff"></rect><text id="SvgjsText1480" font-family="微软雅黑" text-anchor="middle" font-size="13px" width="102px" fill="#323232" font-weight="400" align="top" lineHeight="16px" anchor="middle" family="微软雅黑" size="13px" weight="400" font-style="" opacity="1" y="290.375" transform="rotate(0)"><tspan id="SvgjsTspan1481" dy="16" x="947.95"><tspan id="SvgjsTspan1482" style="text-decoration:;">set-cookie:token</tspan></tspan></text></g><g id="SvgjsG1483"><path id="SvgjsPath1484" d="M469 125L333.5 125L333.5 125L200.6 125" stroke="#323232" stroke-width="2" fill="none" marker-end="url(#SvgjsMarker1485)"></path><rect id="SvgjsRect1487" width="52" height="16" x="308.8" y="117" fill="#ffffff"></rect><text id="SvgjsText1488" font-family="微软雅黑" text-anchor="middle" font-size="13px" width="52px" fill="#323232" font-weight="400" align="top" lineHeight="16px" anchor="middle" family="微软雅黑" size="13px" weight="400" font-style="" opacity="1" y="115.375" transform="rotate(0)"><tspan id="SvgjsTspan1489" dy="16" x="334.8"><tspan id="SvgjsTspan1490" style="text-decoration:;">校验用户</tspan></tspan></text></g><g id="SvgjsG1491"><path id="SvgjsPath1492" d="M198 156L329.5 156L329.5 156L462 156" stroke-dasharray="10,5,3,5" stroke="#d32f2f" stroke-width="2" fill="none" marker-end="url(#SvgjsMarker1493)"></path><rect id="SvgjsRect1495" width="78" height="16" x="291" y="148" fill="#ffffff"></rect><text id="SvgjsText1496" font-family="微软雅黑" text-anchor="middle" font-size="13px" width="78px" fill="#323232" font-weight="400" align="top" lineHeight="16px" anchor="middle" family="微软雅黑" size="13px" weight="400" font-style="" opacity="1" y="146.375" transform="rotate(0)"><tspan id="SvgjsTspan1497" dy="16" x="330"><tspan id="SvgjsTspan1498" style="text-decoration:;">返回用户信息</tspan></tspan></text></g><g id="SvgjsG1499"><path id="SvgjsPath1500" d="M499 174.98930481283423L639.5 174.98930481283423L639.5 174.98930481283423L777.4 174.98930481283423" stroke="#323232" stroke-width="2" fill="none" marker-end="url(#SvgjsMarker1501)"></path><rect id="SvgjsRect1503" width="211" height="16" x="532.6999999999999" y="166.98930481283423" fill="#ffffff"></rect><text id="SvgjsText1504" font-family="微软雅黑" text-anchor="middle" font-size="13px" width="211px" fill="#323232" font-weight="400" align="top" lineHeight="16px" anchor="middle" family="微软雅黑" size="13px" weight="400" font-style="" opacity="1" y="165.36430481283423" transform="rotate(0)"><tspan id="SvgjsTspan1505" dy="16" x="638.1999999999999"><tspan id="SvgjsTspan1506" style="text-decoration:;">签发一次性ucode，重定向业务的url</tspan></tspan></text></g><g id="SvgjsG1507"><path id="SvgjsPath1508" d="M769 199.5L634.5 199.5L634.5 199.5L503.6 199.5" stroke-dasharray="3,3" stroke="#f57c00" stroke-width="2" fill="none" marker-end="url(#SvgjsMarker1509)"></path><rect id="SvgjsRect1511" width="91" height="16" x="590.8000000000001" y="191.5" fill="#ffffff"></rect><text id="SvgjsText1512" font-family="微软雅黑" text-anchor="middle" font-size="13px" width="91px" fill="#323232" font-weight="400" align="top" lineHeight="16px" anchor="middle" family="微软雅黑" size="13px" weight="400" font-style="" opacity="1" y="189.875" transform="rotate(0)"><tspan id="SvgjsTspan1513" dy="16" x="636.3000000000001"><tspan id="SvgjsTspan1514" style="text-decoration:;">ucode查询用户</tspan></tspan></text></g><g id="SvgjsG1515"><path id="SvgjsPath1516" d="M501 235L640.5 235L640.5 235L777.4 235" stroke="#323232" stroke-width="2" fill="none" marker-end="url(#SvgjsMarker1517)"></path><rect id="SvgjsRect1519" width="108" height="16" x="585.2" y="227" fill="#ffffff"></rect><text id="SvgjsText1520" font-family="微软雅黑" text-anchor="middle" font-size="13px" width="108px" fill="#323232" font-weight="400" align="top" lineHeight="16px" anchor="middle" family="微软雅黑" size="13px" weight="400" font-style="" opacity="1" y="225.375" transform="rotate(0)"><tspan id="SvgjsTspan1521" dy="16" x="639.2"><tspan id="SvgjsTspan1522" style="text-decoration:;">redis返回用户信息</tspan></tspan></text></g><g id="SvgjsG1523"><path id="SvgjsPath1524" d="M810 249L947 249L947 280L812.6 280" stroke="#323232" stroke-width="2" fill="none" marker-end="url(#SvgjsMarker1525)"></path><rect id="SvgjsRect1527" width="269" height="16" x="812.5" y="255.2" fill="#ffffff"></rect><text id="SvgjsText1528" font-family="微软雅黑" text-anchor="middle" font-size="13px" width="269px" fill="#323232" font-weight="400" align="top" lineHeight="16px" anchor="middle" family="微软雅黑" size="13px" weight="400" font-style="" opacity="1" y="253.575" transform="rotate(0)"><tspan id="SvgjsTspan1529" dy="16" x="947"><tspan id="SvgjsTspan1530" style="text-decoration:;">业务生成token，用户信息跟token存入redis，</tspan></tspan></text></g><g id="SvgjsG1531"><path id="SvgjsPath1532" d="M809 355L940 355L940 398L811.6 398" stroke="#323232" stroke-width="2" fill="none" marker-end="url(#SvgjsMarker1533)"></path><rect id="SvgjsRect1535" width="61" height="16" x="909.5" y="367.19999999999993" fill="#ffffff"></rect><text id="SvgjsText1536" font-family="微软雅黑" text-anchor="middle" font-size="13px" width="61px" fill="#323232" font-weight="400" align="top" lineHeight="16px" anchor="middle" family="微软雅黑" size="13px" weight="400" font-style="" opacity="1" y="365.57499999999993" transform="rotate(0)"><tspan id="SvgjsTspan1537" dy="16" x="940"><tspan id="SvgjsTspan1538" style="text-decoration:;">校验token</tspan></tspan></text></g></svg>